<?xml version="1.0" standalone="no"?>
<!DOCTYPE svg PUBLIC "-//W3C//DTD SVG 20010904//EN"
 "http://www.w3.org/TR/2001/REC-SVG-20010904/DTD/svg10.dtd">
<svg version="1.0" xmlns="http://www.w3.org/2000/svg"
 width="512.000000pt" height="512.000000pt" viewBox="0 0 512.000000 512.000000"
 preserveAspectRatio="xMidYMid meet">

<g transform="translate(0.000000,512.000000) scale(0.100000,-0.100000)"
fill="#000000" stroke="none">
<path d="M2519 5103 c-20 -23 -25 -666 -6 -703 18 -35 69 -40 91 -8 24 33 24
672 0 706 -18 26 -65 30 -85 5z"/>
<path d="M660 4460 c-20 -20 -20 -33 -20 -630 0 -597 0 -610 20 -630 22 -22
46 -25 70 -10 13 8 16 89 20 592 l5 583 580 3 c531 2 581 3 593 19 19 26 14
60 -10 77 -20 14 -96 16 -630 16 -595 0 -608 0 -628 -20z"/>
<path d="M3200 4460 c-22 -22 -25 -46 -10 -70 8 -13 89 -16 592 -20 l583 -5 5
-583 c4 -503 7 -584 20 -592 24 -15 55 -12 73 8 15 17 17 75 17 630 0 599 0
612 -20 632 -20 20 -33 20 -630 20 -597 0 -610 0 -630 -20z"/>
<path d="M2395 3304 c-38 -8 -117 -38 -174 -65 -89 -44 -116 -63 -191 -137
-151 -151 -219 -300 -228 -498 -7 -174 21 -293 106 -439 43 -74 178 -208 255
-254 243 -143 528 -147 777 -10 92 51 228 185 283 279 131 225 131 536 0 760
-74 126 -229 265 -359 320 -133 58 -320 75 -469 44z m300 -319 c55 -15 156
-77 192 -116 77 -85 131 -241 119 -343 -21 -183 -135 -330 -298 -385 -117 -40
-278 -23 -380 39 -58 35 -135 120 -166 183 -84 171 -51 378 83 512 118 117
281 157 450 110z"/>
<path d="M2450 2884 c-200 -73 -289 -298 -190 -482 39 -73 83 -115 160 -151
46 -22 69 -26 145 -26 84 0 95 2 153 34 116 63 175 156 180 286 5 101 -20 173
-84 244 -64 72 -136 104 -238 108 -57 2 -94 -2 -126 -13z"/>
<path d="M1867 3165 c-251 -113 -583 -356 -749 -547 l-50 -58 42 -50 c47 -56
187 -185 295 -271 115 -93 261 -185 399 -253 184 -90 194 -92 125 -20 -70 74
-111 135 -154 227 -59 123 -78 213 -78 367 0 107 5 152 22 215 39 146 108 271
209 378 30 31 51 57 46 57 -5 0 -53 -20 -107 -45z"/>
<path d="M3192 3153 c101 -107 170 -232 209 -378 30 -112 31 -317 1 -426 -39
-146 -108 -271 -210 -381 -30 -32 -52 -58 -49 -58 12 0 136 56 207 93 123 65
263 157 373 244 106 85 327 297 327 315 0 16 -217 228 -310 302 -135 108 -284
203 -436 277 -77 38 -146 69 -154 69 -7 0 12 -26 42 -57z"/>
<path d="M22 2604 c-17 -12 -22 -24 -20 -47 5 -55 19 -57 373 -57 354 0 368 2
373 57 6 62 -3 63 -373 63 -286 0 -334 -2 -353 -16z"/>
<path d="M4400 2607 c-35 -17 -40 -69 -8 -91 19 -14 67 -16 353 -16 370 0 379
1 373 63 -5 55 -19 57 -373 57 -237 0 -326 -4 -345 -13z"/>
<path d="M656 1918 c-14 -20 -16 -96 -16 -629 l0 -608 26 -20 c26 -21 35 -21
620 -21 356 0 603 4 618 10 30 11 42 49 27 79 -12 21 -15 21 -594 23 l-582 3
-3 580 c-2 531 -3 581 -19 593 -26 19 -60 14 -77 -10z"/>
<path d="M4387 1928 c-16 -12 -17 -62 -19 -593 l-3 -580 -583 -5 c-503 -4
-584 -7 -592 -20 -15 -24 -12 -55 8 -73 17 -15 75 -17 628 -17 511 0 613 2
630 14 18 14 19 34 22 630 2 606 2 616 -18 636 -23 23 -49 26 -73 8z"/>
<path d="M2519 733 c-20 -23 -25 -666 -6 -703 18 -35 69 -40 91 -8 24 33 24
672 0 706 -18 26 -65 30 -85 5z"/>
</g>
</svg>
